<svg xmlns="http://www.w3.org/2000/svg" xmlns:xlink="http://www.w3.org/1999/xlink" width="500" zoomAndPan="magnify" viewBox="0 0 375 374.999991" height="500" preserveAspectRatio="xMidYMid meet" version="1.0"><defs><g/><clipPath id="3c2fa957ab"><path d="M 317.898438 216.824219 L 337.5 216.824219 L 337.5 236.425781 L 317.898438 236.425781 Z M 317.898438 216.824219 " clip-rule="nonzero"/></clipPath><clipPath id="052173c30a"><path d="M 327.699219 216.824219 C 322.285156 216.824219 317.898438 221.210938 317.898438 226.625 C 317.898438 232.039062 322.285156 236.425781 327.699219 236.425781 C 333.113281 236.425781 337.5 232.039062 337.5 226.625 C 337.5 221.210938 333.113281 216.824219 327.699219 216.824219 " clip-rule="nonzero"/></clipPath></defs><rect x="-37.5" width="450" fill="#ffffff" y="-37.499999" height="449.999989" fill-opacity="1"/><rect x="-37.5" width="450" fill="#ffffff" y="-37.499999" height="449.999989" fill-opacity="1"/><rect x="-37.5" width="450" fill="#000000" y="-37.499999" height="449.999989" fill-opacity="1"/><g fill="#ffffff" fill-opacity="1"><g transform="translate(60.977932, 224.624985)"><g><path d="M 3.578125 0 L 3.578125 -80.84375 L 20.234375 -80.84375 L 27.671875 -42.15625 L 27.671875 -80.84375 L 43.296875 -80.84375 L 43.296875 0 L 27.484375 0 L 19.390625 -40.46875 L 19.390625 0 Z M 3.578125 0 "/></g></g></g><g fill="#ffffff" fill-opacity="1"><g transform="translate(102.664533, 224.624985)"><g><path d="M 23.34375 0.75 C 9.601562 0.75 2.734375 -6.367188 2.734375 -20.609375 L 2.734375 -48.28125 C 2.734375 -54.800781 4.566406 -59.988281 8.234375 -63.84375 C 11.898438 -67.707031 16.9375 -69.640625 23.34375 -69.640625 C 29.738281 -69.640625 34.769531 -67.707031 38.4375 -63.84375 C 42.113281 -59.988281 43.953125 -54.800781 43.953125 -48.28125 L 43.953125 -20.609375 C 43.953125 -6.367188 37.082031 0.75 23.34375 0.75 Z M 23.34375 -11.953125 C 24.65625 -11.953125 25.625 -12.421875 26.25 -13.359375 C 26.882812 -14.304688 27.203125 -15.59375 27.203125 -17.21875 L 27.203125 -50.90625 C 27.203125 -54.925781 25.914062 -56.9375 23.34375 -56.9375 C 20.769531 -56.9375 19.484375 -54.925781 19.484375 -50.90625 L 19.484375 -17.21875 C 19.484375 -15.59375 19.796875 -14.304688 20.421875 -13.359375 C 21.046875 -12.421875 22.019531 -11.953125 23.34375 -11.953125 Z M 23.34375 -11.953125 "/></g></g></g><g fill="#ffffff" fill-opacity="1"><g transform="translate(144.257029, 224.624985)"><g><path d="M 17.5 0.75 C 13.175781 0.75 10.195312 -0.15625 8.5625 -1.96875 C 6.925781 -3.789062 6.109375 -6.710938 6.109375 -10.734375 L 6.109375 -53.734375 L 1.5 -53.734375 L 1.5 -66.25 L 6.109375 -66.25 L 6.109375 -80.84375 L 22.109375 -80.84375 L 22.109375 -66.25 L 26.828125 -66.25 L 26.828125 -53.734375 L 22.109375 -53.734375 L 22.109375 -15.0625 C 22.109375 -13.863281 22.203125 -12.984375 22.390625 -12.421875 C 22.585938 -11.859375 23.09375 -11.578125 23.90625 -11.578125 C 24.53125 -11.578125 25.125 -11.609375 25.6875 -11.671875 C 26.25 -11.734375 26.628906 -11.765625 26.828125 -11.765625 L 26.828125 -0.46875 C 25.878906 -0.21875 24.507812 0.046875 22.71875 0.328125 C 20.9375 0.609375 19.195312 0.75 17.5 0.75 Z M 17.5 0.75 "/></g></g></g><g fill="#ffffff" fill-opacity="1"><g transform="translate(167.782029, 224.624985)"><g><path d="M 22.59375 0.75 C 15.5 0.75 10.414062 -1.191406 7.34375 -5.078125 C 4.269531 -8.972656 2.734375 -14.773438 2.734375 -22.484375 L 2.734375 -50.15625 C 2.734375 -56.5 4.550781 -61.332031 8.1875 -64.65625 C 11.820312 -67.976562 16.90625 -69.640625 23.4375 -69.640625 C 36.675781 -69.640625 43.296875 -63.144531 43.296875 -50.15625 L 43.296875 -45.171875 C 43.296875 -40.148438 43.234375 -36.070312 43.109375 -32.9375 L 19.203125 -32.9375 L 19.203125 -19.578125 C 19.203125 -17.191406 19.453125 -15.320312 19.953125 -13.96875 C 20.453125 -12.625 21.519531 -11.953125 23.15625 -11.953125 C 24.40625 -11.953125 25.296875 -12.328125 25.828125 -13.078125 C 26.367188 -13.828125 26.6875 -14.6875 26.78125 -15.65625 C 26.875 -16.632812 26.921875 -18.066406 26.921875 -19.953125 L 26.921875 -26.640625 L 43.296875 -26.640625 L 43.296875 -22.6875 C 43.296875 -14.65625 41.738281 -8.738281 38.625 -4.9375 C 35.519531 -1.144531 30.175781 0.75 22.59375 0.75 Z M 26.921875 -41.125 L 26.921875 -49.96875 C 26.921875 -54.925781 25.695312 -57.40625 23.25 -57.40625 C 20.488281 -57.40625 19.109375 -54.925781 19.109375 -49.96875 L 19.109375 -41.125 Z M 26.921875 -41.125 "/></g></g></g><g fill="#ffffff" fill-opacity="1"><g transform="translate(208.527617, 224.624985)"><g><path d="M 3.296875 -68.890625 L 20.046875 -68.890625 L 20.046875 -65.21875 C 22.429688 -68.164062 25.722656 -69.640625 29.921875 -69.640625 C 35.253906 -69.640625 38.972656 -67.847656 41.078125 -64.265625 C 43.179688 -60.691406 44.234375 -55.738281 44.234375 -49.40625 L 44.234375 -23.90625 C 44.234375 -18.507812 43.914062 -14.097656 43.28125 -10.671875 C 42.65625 -7.253906 41.273438 -4.492188 39.140625 -2.390625 C 37.015625 -0.296875 33.785156 0.75 29.453125 0.75 C 25.316406 0.75 22.179688 -0.410156 20.046875 -2.734375 L 20.046875 13.734375 L 3.296875 13.734375 Z M 24 -12.046875 C 25.5 -12.046875 26.46875 -12.734375 26.90625 -14.109375 C 27.351562 -15.492188 27.578125 -17.503906 27.578125 -20.140625 L 27.578125 -49.40625 C 27.578125 -51.789062 27.351562 -53.609375 26.90625 -54.859375 C 26.46875 -56.117188 25.46875 -56.75 23.90625 -56.75 C 21.332031 -56.75 20.046875 -54.363281 20.046875 -49.59375 L 20.046875 -19.390625 C 20.046875 -17.066406 20.3125 -15.257812 20.84375 -13.96875 C 21.375 -12.6875 22.425781 -12.046875 24 -12.046875 Z M 24 -12.046875 "/></g></g></g><g fill="#ffffff" fill-opacity="1"><g transform="translate(250.402416, 224.624985)"><g><path d="M 15.8125 0.75 C 10.476562 0.75 6.820312 -1.019531 4.84375 -4.5625 C 2.863281 -8.101562 1.875 -13.171875 1.875 -19.765625 C 1.875 -25.160156 2.578125 -29.300781 3.984375 -32.1875 C 5.398438 -35.070312 7.363281 -37.1875 9.875 -38.53125 C 12.382812 -39.882812 16.210938 -41.378906 21.359375 -43.015625 L 25.875 -44.515625 L 25.875 -51.578125 C 25.875 -53.390625 25.515625 -54.78125 24.796875 -55.75 C 24.078125 -56.726562 23.210938 -57.21875 22.203125 -57.21875 C 21.328125 -57.21875 20.5625 -56.804688 19.90625 -55.984375 C 19.25 -55.171875 18.921875 -54.078125 18.921875 -52.703125 L 18.921875 -48.5625 L 2.921875 -48.5625 L 2.921875 -50.8125 C 2.921875 -57.59375 4.503906 -62.425781 7.671875 -65.3125 C 10.835938 -68.195312 16 -69.640625 23.15625 -69.640625 C 28.863281 -69.640625 33.503906 -68.148438 37.078125 -65.171875 C 40.648438 -62.191406 42.4375 -57.972656 42.4375 -52.515625 L 42.4375 0 L 26.0625 0 L 26.0625 -8.1875 C 25.25 -5.363281 23.945312 -3.164062 22.15625 -1.59375 C 20.375 -0.03125 18.257812 0.75 15.8125 0.75 Z M 22.296875 -12.046875 C 23.554688 -12.046875 24.453125 -12.5625 24.984375 -13.59375 C 25.515625 -14.632812 25.78125 -15.90625 25.78125 -17.40625 L 25.78125 -36.609375 C 23.332031 -35.671875 21.53125 -34.476562 20.375 -33.03125 C 19.21875 -31.59375 18.640625 -29.585938 18.640625 -27.015625 L 18.640625 -18.15625 C 18.640625 -14.082031 19.859375 -12.046875 22.296875 -12.046875 Z M 22.296875 -12.046875 "/></g></g></g><g fill="#ffffff" fill-opacity="1"><g transform="translate(290.677503, 224.624985)"><g><path d="M 3.296875 0 L 3.296875 -81.3125 L 20.046875 -81.3125 L 20.046875 0 Z M 3.296875 0 "/></g></g></g><g clip-path="url(#3c2fa957ab)"><g clip-path="url(#052173c30a)"><path fill="#ffffff" d="M 317.898438 216.824219 L 337.5 216.824219 L 337.5 236.425781 L 317.898438 236.425781 Z M 317.898438 216.824219 " fill-opacity="1" fill-rule="nonzero"/></g></g></svg>