<svg xmlns="http://www.w3.org/2000/svg" xmlns:xlink="http://www.w3.org/1999/xlink" width="500" zoomAndPan="magnify" viewBox="0 0 375 374.999991" height="500" preserveAspectRatio="xMidYMid meet" version="1.0"><defs><g/><clipPath id="7595acac18"><path d="M 228.375 236.75 L 247.976562 236.75 L 247.976562 256.351562 L 228.375 256.351562 Z M 228.375 236.75 " clip-rule="nonzero"/></clipPath><clipPath id="ba77bf0ec0"><path d="M 238.175781 236.75 C 232.761719 236.75 228.375 241.136719 228.375 246.550781 C 228.375 251.964844 232.761719 256.351562 238.175781 256.351562 C 243.589844 256.351562 247.976562 251.964844 247.976562 246.550781 C 247.976562 241.136719 243.589844 236.75 238.175781 236.75 " clip-rule="nonzero"/></clipPath></defs><rect x="-37.5" width="450" fill="#ffffff" y="-37.499999" height="449.999989" fill-opacity="1"/><rect x="-37.5" width="450" fill="#000000" y="-37.499999" height="449.999989" fill-opacity="1"/><g clip-path="url(#7595acac18)"><g clip-path="url(#ba77bf0ec0)"><path fill="#ffffff" d="M 228.375 236.75 L 247.976562 236.75 L 247.976562 256.351562 L 228.375 256.351562 Z M 228.375 236.75 " fill-opacity="1" fill-rule="nonzero"/></g></g><g fill="#ffffff" fill-opacity="1"><g transform="translate(150.732754, 248.736869)"><g><path d="M 5.609375 0 L 5.609375 -126.84375 L 31.75 -126.84375 L 43.40625 -66.15625 L 43.40625 -126.84375 L 67.921875 -126.84375 L 67.921875 0 L 43.109375 0 L 30.421875 -63.484375 L 30.421875 0 Z M 5.609375 0 "/></g></g></g></svg>